<svg id="Layer_1" data-name="Layer 1" xmlns="http://www.w3.org/2000/svg" viewBox="0 0 281.75 246.49"><defs><style>.cls-1{fill:#1f1e21;}</style></defs><title>Logo RA-sort</title><path class="cls-1" d="M388.2,226.57c.76.16,1.71.29,2.43.37h0c-2.22-1.76-5.7-3.94-9.61-4.08-2.77-.09-5.61.12-7.25-.77a7,7,0,0,1-2.12-1.44.17.17,0,0,0-.3.15,5.15,5.15,0,0,0,2.09,3.22c2.82,2,6.59,1.88,8.09,1.8A21.94,21.94,0,0,1,388.2,226.57Z" transform="translate(-274.2 -128.07)"/><path class="cls-1" d="M361,234.39a45.87,45.87,0,0,1-2.09-5.52c1-.76,2.49-1.79,3.39-2.4,0,0,1-.91,2.7,1.4s.52,3.23.52,3.23C364.27,232,362.42,233.35,361,234.39Z" transform="translate(-274.2 -128.07)"/><path class="cls-1" d="M355.63,243.36a.45.45,0,0,0,.56.08,28.25,28.25,0,0,0,5.38-4.86.56.56,0,0,0,.06-.58l-1.46-3a46.61,46.61,0,0,1-2.09-5.53c-2.5-7.73,5.25-23.29,15.86-34,.18-.18,0-.38-.21-.3a93.27,93.27,0,0,0-50.31,39.9c-.14.24,0,.41.27.28,15.07-8,20.21-3,24.76,1.12Z" transform="translate(-274.2 -128.07)"/><path class="cls-1" d="M285.26,203.73c-5.93-4.33-7-4.79-10.52-.73l-.54-.4,6.6-9.68c6.82-10,12.16-7.28,14-5.92,3.25,2.38,3.64,5.75,2.84,9.45h.41c7.42.84,17.44,2.86,23.43-2.57l.5.54c-3.2,4-5.93,6.21-9.9,6.75a42.23,42.23,0,0,1-11.69-.27c-4.35-.8-4.43,1.27-6.88,3.64l6.24,4.56c4.26,3.12,5.09,3.61,9.71-1.16l.58.42-9.36,14-.58-.42c2.78-5.11,1.06-6.42-2.85-9.46Zm7.61.33c2.68-3.75,4.15-9.33-.16-12.48-4.53-3.31-9.27-.65-12.2,3.45Z" transform="translate(-274.2 -128.07)"/><path class="cls-1" d="M322.85,183.38c3.31,3.67,4.59,4.93,9.48,1.8l.46.55-12.32,10.45-.75-.77c3.89-4.31,3-5.44-.09-9.3l-10.92-12.89c-3.31-3.68-4.28-4.75-9.17-1.61l-.46-.55,12.3-10.43.47.55c-3.9,4.31-3,5.44.08,9.31Z" transform="translate(-274.2 -128.07)"/><path class="cls-1" d="M338.59,172.43c2.46,4.29,3.18,5.54,9,3.29l.34.63-14,8.64-.34-.63c4.72-3.4,3.51-5.51,1.31-9.93l-8-14.89c-2.46-4.29-3.18-5.54-8.62-3.5l-.34-.63,13.45-7.21.34.63c-3.95,3-3.31,4.28-1.11,8.71ZM346,140.35l.34.63c-4.55,3.1-5.57,8.93-7,13.86l-1.71,6.36,13.67,4.88c4.1,1.45,8.63,3.1,13,2.14l.13.75c-7.68,3.35-9.1,3-15.41.8L335.37,165,338.21,154c1.77-7.37.17-8.31-2.82-7.09l-.34-.64Z" transform="translate(-274.2 -128.07)"/><path class="cls-1" d="M374.78,140.88l-.74.2c-1.77-3.55-4-6.83-8.54-5.58a5.32,5.32,0,0,0-4,6.57c2.19,8,16.7,3.75,19.25,13.11,1.63,6-3.64,10.23-9,11.68a15.83,15.83,0,0,1-8.79-.13l-3.3-7,.83-.23c2.37,4.13,6.48,7.23,11.58,5.84,3.42-.94,5.75-3.25,4.76-6.86-2.25-8.24-16.22-3.64-18.74-12.9-1.48-5.42,3-10.31,7.91-11.66a14.75,14.75,0,0,1,7.26,0Z" transform="translate(-274.2 -128.07)"/><path class="cls-1" d="M389.8,149.36c-.65,2.45-2.41,7.57-2.25,9.87.2,2.92,3.51,2.69,5.69,2.88l.05.72-12.91,1.61-.05-.72c4.18-1.45,4.33-3.13,5.56-7l4.43-14.5,2.33-8c.34-1.27.89-2.46.3-3.34a9,9,0,0,0,3.31-2.83l12.48,27.33c1.54,3.41,2.82,5.54,6.7,6l1,.94-15.43,0-.05-.72c1.65-.5,3.63-1.16,3.48-3.32-.14-2-2.27-6.39-3.75-9.65Zm4.3-15-3.64,12.77,9.48-.66Z" transform="translate(-274.2 -128.07)"/><path class="cls-1" d="M445.09,160.62l3.68-17.14c1-4.45.05-6-5-8.19l.16-.7,12.77,2.93-.16.7c-3.32-.32-4.34,1.32-5.41,4.27-1.83,5-4.18,16.33-6.28,26.59h-.64c-5.46-10.56-11.92-20.66-17.88-31l-2,8.61c-2.65,11.6-3.48,13.92,3,16.83l-.16.71-15-2.37,1.5-.74c6.46.79,6.86-4.37,9.29-15l1.61-7c1.07-4.67.74-6.67-4.9-9.34l.16-.7,7.72,1.76Z" transform="translate(-274.2 -128.07)"/><path class="cls-1" d="M487.61,151.73l.34.18-3.53,8.28-.66-.18c1.24-6.06-1-7.49-5.9-10l-2.56-1.33-10.19,19.7c-2.73,5.29-3.64,7.11,1.72,10.74l-.33.64-15.69-8.11.33-.64c6.07,2.27,7.49.72,10.22-4.57l10.19-19.7L469,145.4c-4.9-2.54-7.35-3.54-11.58,1l-.53-.44,4.72-7.66.34.17.23.61c.56,1.53.75,1.57,2.16,2.3l19.52,10.1c1.41.73,1.56.86,3.13.43Z" transform="translate(-274.2 -128.07)"/><path class="cls-1" d="M483.63,182.42c-2.92,4-3.77,5.15.29,9.3l-.44.57-12.71-9.93.44-.57c5,2.94,6.34,1.74,9.5-2.07l10.4-13.31c2.93-4,3.78-5.15-.29-9.3l.44-.57L504,166.46l-.44.57c-5-2.94-5.94-1.83-9.09,2Z" transform="translate(-274.2 -128.07)"/><path class="cls-1" d="M498,195.35c-3.68,3.3-4.83,4.31-1.41,9.53l-.55.47-11.25-12.19.55-.46c4.31,3.9,5.44,3,9.31-.07l13.52-11.41c3.69-3.3,4.76-4.27,1.62-9.16l.55-.47,9.86,11.66-.55.46c-3.75-3.24-4.88-2.35-8.75.73Zm32.92.58-.55.46c-4-3.8-9.88-3.58-15-3.91l-6.58-.34-1.92,14.38c-.56,4.31-1.33,9,.51,13.07l-.7.29c-4.88-6.82-4.76-8.23-3.9-14.86l1.81-14.36,11.41.48c7.57.19,8.16-1.57,6.34-4.24l.55-.46Z" transform="translate(-274.2 -128.07)"/><path class="cls-1" d="M548.55,230.68l-.65.31c-2.33-3.88-6.35-3.46-13.91-3.07l-22.56,1.22-.3-.6,17.42-21c2.51-2.83,4.78-5.18,3.33-9.22l.65-.32,6.7,13.66-.65.32c-3.58-5.78-6.06-2.11-8.22.34L518.23,227.2l13.56-.71c10.66-.63,12.42-.63,10.15-7.65l.65-.32Z" transform="translate(-274.2 -128.07)"/><path class="cls-1" d="M530.81,240.32c-2.53-.18-7.9-.94-10.13-.35-2.83.75-2,3.95-1.75,6.12l-.7.19-4.49-12.59.7-.19c2.2,3.84,4.37,3.89,8.37,4.37l15.08,1.61,8.3.78c1.31.1,2.59.41,3.33-.33a9.19,9.19,0,0,0,3.41,2.72l-24.49,17.41c-3.06,2.15-4.79,3.3-4.5,7.19l-.7.19-3-13.65.7-.18c.8,1.53,1.83,3.34,3.92,2.79s5.84-3.44,8.77-5.5Zm15.56,1.39-13.22-1.17,2.43,9.19Z" transform="translate(-274.2 -128.07)"/><path class="cls-1" d="M545.94,269.48c7.35,0,8.45-.24,8.93-5.61h.67l.38,11.71c.38,12.1-5.52,13.05-7.83,13.05-4,0-6.33-2.5-7.87-5.95l-.33.24c-6.48,3.69-15.54,8.17-17.18,16.09l-.72-.15c.24-5.09.9-8.7,3.78-11.49a42.16,42.16,0,0,1,9.61-6.66c4-1.92,2.83-3.65,3.41-7h-7.73c-5.28,0-6.24.09-7.15,6.67h-.72l-.59-16.87h.72c.76,5.77,2.8,5.83,7.74,6Zm-6.34,4.22c0,4.61,2.16,10,7.49,10,5.61,0,7.87-4.94,7.83-10Z" transform="translate(-274.2 -128.07)"/><path class="cls-1" d="M523.36,296.54c-1,5.73,1,6.42,5.73,8l16.12,5c4.76,1.34,6.15,1.73,8.6-3.54l.69.22-7.7,24.59-6.88-2.76.21-.68c6,1.53,7.39-2.72,8.84-7.34l1.39-4.45-13.05-4.09-1.49,4.77c-1.08,3.43-1.62,6.13,2.16,7.87l-.22.68-10.21-3.19.21-.69c4.22.67,5.06-1.84,6.13-5.27l1.49-4.77-7.51-2.35c-2.7-.85-6.26-2.66-8.61,4.85-1.8,5.77-.73,9.12,4.68,12.07l-.22.69a30.22,30.22,0,0,1-8.58-4.4l7.53-25.5Z" transform="translate(-274.2 -128.07)"/><path class="cls-1" d="M504.25,353.52l14.62,9.64c3.8,2.53,5.61,2.25,9.46-1.7l.59.41-7.36,10.84-.6-.41c1.5-3,.35-4.52-2-6.59-4-3.53-13.69-9.83-22.48-15.51l.23-.6c11.82-1.25,23.57-3.6,35.35-5.4l-7.3-5c-9.85-6.69-11.71-8.3-16.77-3.33l-.6-.4L514.62,323l.6.41c-3.09,5.73,1.52,8.63,10.53,14.75l6,4.05c4,2.7,5.95,3.11,10.49-1.17l.6.4L538.33,348Z" transform="translate(-274.2 -128.07)"/><path class="cls-1" d="M491.71,299.15a8.68,8.68,0,0,0-1.21-2.2c-2.09-3-4.24-3.88-6.63-5.68-2.73-2.06-4.73-4.4-4.23-9.8,0-.34-.08-.3-.22-.17-2,2.09-2.57,3.69-2.18,5.93.05.29-.16.22-.33,0-2.89-3.55-3.47-6.17-2.05-11.53.07-.26,0-.27-.19-.14-3.62,2.52-4.45,5.88-3.93,8.32.08.25-.1.33-.31.09-2.89-3.33-4.95-9-.77-14.74.18-.24,0-.19-.24-.11-5.55,1.75-7.26,7.45-6.38,10.58.1.34-.11.25-.34.08a21.17,21.17,0,0,1-2.47-1.77c-4.72-3.68-9.34-8.35-11.21-12.33A12.07,12.07,0,0,1,448,259a7.67,7.67,0,0,1,3.54-5.53,9.47,9.47,0,0,1,9.92-.28c.25.15.34.07.15-.23-1.39-2.21-4.08-5-8.53-4.22-.24,0-.34,0-.09-.23,3-1.64,6.5-1.67,10.35-.42,3.29,1.08,4.09,2.48,5.91,4.44.18.2.21,0,.18-.15-1.05-5.19-5.33-8.17-9.34-9.26-.32-.09-.33-.29.06-.27,9.45.29,16,5.54,19,11,.12.2.23.19.2-.07-.81-7.45-4.13-9.79-6.73-12.17-.21-.19-.15-.3.08-.25,2.86.73,8,4.3,10.26,6.41a41,41,0,0,1,6.14,7.43c.76,1.22,2.19,3.78,2.59,4.55.1.19.18,0,.18,0A84.68,84.68,0,0,0,487.54,247c-2.75-5.76-5.15-7.88-8.8-10.26a23.18,23.18,0,0,0-3.19-1.84,10.62,10.62,0,0,0,.72-3.93,12.51,12.51,0,0,0-1.46-5,17.57,17.57,0,0,0-2-2.88c-.33-.38-.27,0-.27,0a7.73,7.73,0,0,1,.9,3.06,5,5,0,0,1-.58,3.25,5.18,5.18,0,0,1-3.28,2.3,41.73,41.73,0,0,1-6.59.9,26.44,26.44,0,0,0-8.13,2.06c-5.13,2.19-13.34,8-13.19,20.1.08,7.25,2.2,11.37,5.8,16.26,5.39,7.31,10.31,10.94,17.71,15.3,5.66,3.33,17.81,8.28,21.55,13.45,2,2.81.94,7.35-2,9.51-4.81,3.51-11.25,4.1-25.66.13-3.33-.92-9.38-4.88-11.47-8.2a14.87,14.87,0,0,0-1.14-4c-2.75-5.92-6-7.83-11.72-10.66-6-3-9.94-10.52-11.84-15.8a25.21,25.21,0,0,1-1.34-8.49,27.55,27.55,0,0,1-8.2-9.32.6.6,0,1,1,1.06-.55,26.17,26.17,0,0,0,7.87,8.91,16.62,16.62,0,0,0,1.85,1.15,16.83,16.83,0,0,0,3.72,1.26c.25.06.32,0,.17-.2-1.1-1.44-1.88-4.55-2.24-6.45a21.72,21.72,0,0,1-.18-5.67c.39-4.21,3.78-3.7,4.67-3.55.3,0,.32,0,.21-.19a12.07,12.07,0,0,1-1.87-6.56,14.31,14.31,0,0,0,2.71-.14,18.35,18.35,0,0,0,4.5-1.42c.15-.05.22-.18-.06-.19a9.05,9.05,0,0,1-2.75-1.12,6.87,6.87,0,0,1-2.22-2.34,11.18,11.18,0,0,1-.86-3.57,15.6,15.6,0,0,1-.1-3.53c.19-3.92-.46-6.46-2.17-10.66,7.68-1.68,5.45-7.05,5.45-7.05s-4.17-1.79-7.06-.29l0-.35c.8-7.79,2.55-10.59,6.08-14.77.1-.12.07-.21-.13-.16-2,.47-6.18,1.07-6.53,4.8-.18-.71-2.24-2.61-3.89,2.12.79-.19,3-.57,2.91,1.66a2.72,2.72,0,0,1-2.72,2.88,18.18,18.18,0,0,1-3.76-.28c-3-.47-4.17-1.64-3.54-3.63.74-2.34,3.27-1.29,4.75-.88-1.79-5.07-4.59-3.68-5.17-3,.83-3.54-.37-6.69-2-8.08-1.89,1-3.7,3.86-3.61,7.5-.44-.74-2.9-2.68-5.69,1.93,1.54-.11,4.23-.62,4.48,1.82.21,2.08-1.13,3-4.21,2.84a18.34,18.34,0,0,1-3.73-.49,2.72,2.72,0,0,1-2.08-3.38c.35-2.2,2.45-1.37,3.18-1-.64-5-3.05-3.52-3.37-2.87.41-3.72-3.62-5.2-5.42-6-.17-.07-.24,0-.16.13,2.61,4.82,3.75,7.92,2.95,15.7l-.13,1.26c-3.82.48-6.4,1.2-7.36,1.85-.77.48-.83,3-.07,3.54,1.06.7,1.14.65.52,1.4-3.49,5.65,1,9.14,7.36,6.7,3,3.14,1.62,4.23.93,4.53a15.33,15.33,0,0,1-8.24-.14c-.55-.06-1.28,0-1,3.65.05.74-.13,1,.1,1.61.48,1.36,3,1.88,8.16.6-1.91,5.79-5.42,8-7.38,8.68a17.82,17.82,0,0,1-6.81.73,16.05,16.05,0,0,1-7.95-2.63c-.16-.13-.25,0-.21.2a19.22,19.22,0,0,0,1.48,5.49,12.33,12.33,0,0,0,1.57,2.23,16.84,16.84,0,0,0,2.16,1.8,19.15,19.15,0,0,0,4.53,2.17.61.61,0,0,1,.45.73.62.62,0,0,1-.59.46l-.14,0a21.35,21.35,0,0,1-5.09-2.45,24.12,24.12,0,0,0-6.41,7.63h0a33.63,33.63,0,0,0-3.36,13,17.66,17.66,0,0,0,.09,1.9c5.39-3.62,14.57-6.3,20.26-6.41a.6.6,0,1,1,0,1.2c-5.64.11-14.8,2.81-19.93,6.42a28.86,28.86,0,0,0-3.2,2.89,35.58,35.58,0,0,1-5.82,4.85c-2,1.33-10.35,4.32-12.91,5a17.73,17.73,0,0,1-5.89.84c-5.8-.33-5.47.27-7.34,1l.12-1.37a75.15,75.15,0,0,1,4.6-19.69,30.53,30.53,0,0,1,6.76-1.51,21.72,21.72,0,0,1,6.6.83c1.39.33,10.47,3.92,15.54,6.18a18,18,0,0,1-.11-2.17,34.51,34.51,0,0,1,3.21-12.92,48.2,48.2,0,0,0-12.66-2,36.19,36.19,0,0,1-5.17-.5c-1-.17-4.29-2.2-6.84-2.24a76.74,76.74,0,0,1,7.88-10l.47-.51-4.06-3.91-.5.49a80.7,80.7,0,0,0-10.62,14.21c-1.52.3-3.78.26-5,1.35a6.81,6.81,0,0,0-1.41,2.24c-.38.57-1.75,1-2.31,2.36-.77,1.83-.12,2-.29,2.65s-1.06,1.69-1.17,2.93a7,7,0,0,0,1.27,3.83,6.06,6.06,0,0,0,1.49,1.25,81.28,81.28,0,0,0-3.33,16.13q-.26,2.5-.36,5c-1.39,1-3.33,2.5-3.78,3.45a5,5,0,0,0-.19,2.63c-.07.69-1.06,1.73-.93,3.17.18,2,.81,1.8,1,2.48s-.15,2,.34,3.13a9.14,9.14,0,0,0,2.88,3.13,4.71,4.71,0,0,0,2.1.75,80.67,80.67,0,0,0,112.12,58.32A92.78,92.78,0,0,0,473,342.74s1.13-1-1.68-2.5-3.13-.5-3.13-.5a87.49,87.49,0,0,1-22,18.27c.81-.62.87-1.34.93-3.07.12-4,1.53-7.45,2.23-9.6a25.91,25.91,0,0,1,2.14-4.63c1.06-2,2.45-4.24,6.06-3.68.23,0,.23,0,0-.27a6.69,6.69,0,0,0-3.47-2.58,5.17,5.17,0,0,0,.5-3.8c-.05-.19-.12-.19-.19,0a5.87,5.87,0,0,1-2.15,2.58c-1.49,1-2.79.71-4.2.57a10,10,0,0,1-6-3.3,12.21,12.21,0,0,1-2.16-10.86c.84-2.48,3.83-4.2,6.5-8.9,2.88,2.25,9.19,4.91,14.23,5.9,7.89,1.56,16.87,2.1,23.82-1.16C490.54,312.32,493.86,305.07,491.71,299.15Zm-92-89.48a137.36,137.36,0,0,1,13.94,1.24c.29,0,.27.86-.06.91a21.08,21.08,0,0,1-3.86.17c-1.09,0-2.76,0-3.58,0-1.19,1.52-2.06,2.6-4.29,2.44a1.65,1.65,0,0,1-1-2.7c.13-.09.08-.23,0-.25-.73-.08-2.15-.29-2.43-.3C397.79,211.12,398.85,209.65,399.69,209.67ZM436.76,355a15,15,0,0,1-3.94,1.25,6.08,6.08,0,0,0-4,1.25c-1.42,1.09-2.1,5.9-1.82,6.39a4.13,4.13,0,0,0,1.73,1.86,75.06,75.06,0,0,1-28.8,2.81c-.68-.07-1.36-.14-2-.23a9.21,9.21,0,0,0,2.19-1.83,5.94,5.94,0,0,0,1.67-2.63,31.31,31.31,0,0,1,1.62-4.56c.78-1.55,3.71-7.11,5.24-8.93.33-.38.69-.77,1.07-1.15,1.38-1.27,4.1-1.79,5-.49.12.17.24.29.26-.06a5.22,5.22,0,0,0-.52-3.06,11.8,11.8,0,0,1,2.22-.62,13.33,13.33,0,0,1,2.42-.15c.15,0,.16-.12,0-.2a20.67,20.67,0,0,1-2.35-1.71,10.48,10.48,0,0,1-2.48-3.07c-1.12-2.21-1.94-3.24-1.42-6.5.32-2,1.65-3.07,2.69-4.13.21-.21,1-.8,1.65-1.33A22.11,22.11,0,0,1,413,322.3a20.74,20.74,0,0,1-1.58-7.11c-.36-3.3-.73-6.71-2.63-9.77-.32-.52-1.24-1.8-1.7-2.37a33.45,33.45,0,0,0-10,11,34.28,34.28,0,0,0-3.73,9.71,12,12,0,0,0,.18,7.06c.91,2.64,5.45,7,5.94,9.11.7,3,1.22,3.43-.35,7.66-1,2.79-5,8.91-6.3,9.62-1.31,1-2.75,2.1-4.24,1.15-3.25-2.06-4.25-2.41-6.34-1.88-1.07.27-3.81,3.33-4,4.15a4.23,4.23,0,0,0,.52,2.7,75.32,75.32,0,0,1-46-58.26s0,.09.76-.67c1-1,.83-2.57,3.39-4a42,42,0,0,1,8.61-3,111.23,111.23,0,0,1,13.2-2.11,12.69,12.69,0,0,1,6.82,1.54,24,24,0,0,1,4.57,3.34c.12.12.26.13.21-.14a23.11,23.11,0,0,0-1.74-5.34c-.07-.13.06-.11.2-.06a36,36,0,0,1,5,3.67,29.69,29.69,0,0,1,4.05,5.33c.11.21.22.09.16-.07a49.53,49.53,0,0,1-1.61-5.78,12.65,12.65,0,0,1-.15-3.73c.2-1.92,1.81-3.39,3.67-4.45l0,0,.32-.17.06,0h0a20.38,20.38,0,0,0,4.89-3.42.6.6,0,0,1,.92.78,18,18,0,0,1-4.49,3.27,32.88,32.88,0,0,0,6.56,2.29c6,1.14,7.72,1.43,10.42,2.65a32.69,32.69,0,0,1,9.41,7.41v0c.51.64,1.39,1.87,1.72,2.41,2.05,3.29,2.45,7,2.8,10.27a19.93,19.93,0,0,0,1.46,6.69,21,21,0,0,0,4.07,5.42,30.87,30.87,0,0,0,8,5.18c4.53,2.24,10.17,5.8,11.56,9.27C440.09,347.66,439.31,349,436.76,355Z" transform="translate(-274.2 -128.07)"/></svg>